<svg xmlns="http://www.w3.org/2000/svg" style="display: none;">
  
    <symbol id="icon-search" viewBox="0 0 512 512">
      <path d="m450 395c10 12 11 22 3 32c0 0-24 24-24 24c-12 10-24 10-35 0c0 0-97-98-97-98c-25 15-52 22-80 22c-44 0-82-16-114-49c-33-32-49-70-49-114c0-44 16-81 46-112c31-31 68-47 112-47c44 0 82 16 115 49c32 32 49 70 49 114c0 30-8 58-24 83c0 0 98 96 98 96m-348-183c0 30 12 57 35 80c23 23 50 35 80 35c30 0 56-11 77-33c22-21 33-47 33-78c0-30-12-56-35-79c-23-23-50-35-80-35c-30 0-56 11-77 33c-22 21-33 47-33 77"/>
    </symbol>
  
    <symbol id="icon-settings" viewBox="0 0 512 512">
      <path d="m256 175c-45 0-81 36-81 81 0 45 36 81 81 81 45 0 81-36 81-81 0-45-36-81-81-81z m162 128l-14 35 26 51 3 7-36 36-59-28-35 14-18 55-2 7-51 0-22-62-36-14-51 26-7 3-36-36 28-59-14-35-55-18-7-2 0-51 62-22 14-36-26-51-3-7 36-36 59 28 35-14 18-55 2-7 51 0 22 62 36 14 51-26 7-3 36 36-28 59 14 35 55 18 7 2 0 51z"/>
    </symbol>
  
    <symbol id="icon-menu" viewBox="0 0 512 512">
      <path d="m0 228l512 0 0 56-512 0z m0-143l512 0 0 57-512 0z m0 285l512 0 0 57-512 0z"/>
    </symbol>
  
    <symbol id="icon-forum" viewBox="0 0 512 512">
      <path d="m427 21l-363 0c-35 0-64 29-64 64l0 256c0 36 43 43 64 43l0 128l192-128l171 0c35 0 64-29 64-64l0-235c0-35-29-64-64-64z m21 299c0 12-10 21-21 21l-192 0l-128 107l0-107l-43 0c-12 0-21-9-21-21l0-235c0-11 9-21 21-21l363 0c11 0 21 10 21 21z"/>
    </symbol>
  
    <symbol id="icon-help" viewBox="0 0 512 512">
      <path d="m253 20c65 0 120 22 167 67c46 45 70 100 72 165c0 65-22 121-68 167c-45 47-100 71-165 73c-65 0-121-22-167-68c-47-45-71-100-72-165c-1-65 21-121 67-167c46-47 101-71 166-72m0 31c-32 0-63 8-91 23c0 0 32 53 32 53c19-10 39-14 62-14c23 0 43 4 62 14c0 0 32-53 32-53c-30-16-62-23-97-23m-126 267c-10-20-14-41-14-62c0-22 4-43 14-63c0 0-52-32-52-32c-16 30-24 62-24 97c1 33 9 64 24 92c0 0 52-32 52-32m132 143c34-2 64-9 91-24c0 0-32-53-32-53c-20 10-41 15-62 15c-21 0-42-5-62-15c0 0-32 53-32 53c29 16 62 24 97 24m-3-92c31 0 58-11 80-34c22-22 33-48 33-79c0-31-11-58-33-80c-22-22-49-33-80-33c-31 0-58 11-80 33c-22 22-33 49-33 80c0 31 11 57 33 79c22 23 49 34 80 34m129-51c0 0 53 32 53 32c16-33 23-65 23-97c0-33-8-64-23-92c0 0-53 32-53 32c10 20 14 41 14 63c0 21-4 42-14 62"/>
    </symbol>
  
    <symbol id="icon-info" viewBox="0 0 512 512">
      <path d="m318 0c17 0 29 5 38 14c9 9 14 21 14 35c0 17-7 32-20 45c-14 13-30 20-49 20c-16 0-29-5-38-14c-9-9-13-21-12-37c0-15 6-30 18-43c12-13 28-20 49-20m-105 512c-34 0-43-30-28-91c0 0 31-130 31-130c5-19 5-29 0-29c-4 0-13 3-28 9c-14 7-26 13-36 20c0 0-14-23-14-23c31-26 63-48 97-64c34-17 60-25 77-25c27 0 33 28 19 83c0 0-36 136-36 136c-6 22-5 33 3 33c15 0 35-10 60-31c0 0 16 21 16 21c-29 29-59 52-90 67c-31 16-55 24-71 24"/>
    </symbol>
  
    <symbol id="icon-blog" viewBox="0 0 512 512">
      <path d="m254 338l33-33l-44-43l-33 33l0 16l28 0l0 27z m125-205c-3-3-6-3-9 0l-100 100c-3 3-3 6 0 9c3 3 6 3 9 0l100-100c3-3 3-6 0-9z m23 169l0 55c0 22-8 42-24 58c-16 16-35 24-58 24l-238 0c-22 0-42-8-58-24c-16-16-24-36-24-58l0-238c0-23 8-42 24-58c16-16 36-24 58-24l238 0c12 0 23 2 33 7c3 1 5 3 6 6c0 4-1 6-3 9l-14 14c-3 2-6 3-9 2c-5-1-9-2-13-2l-238 0c-12 0-23 5-32 14c-9 9-13 19-13 32l0 238c0 12 4 23 13 32c9 9 20 13 32 13l238 0c13 0 23-4 32-13c9-9 14-20 14-32l0-36c0-3 1-5 2-7l19-18c2-3 6-4 10-2c3 2 5 4 5 8z m-27-211l82 83l-192 192l-82 0l0-83z m127 38l-27 26l-82-82l26-26c6-5 12-8 20-8c7 0 14 3 19 8l44 43c5 6 8 12 8 20c0 7-3 14-8 19z"/>
    </symbol>
  
    <symbol id="icon-my-data" viewBox="0 0 512 512">
      <path d="m435 26c8 0 14 2 19 7c4 5 7 11 7 18c0 0 0 435 0 435c0 0-103 0-103 0c0 0 0-435 0-435c0-17 7-25 21-25c0 0 56 0 56 0m-153 153c7 0 13 3 18 8c5 5 7 11 7 18c0 0 0 281 0 281c0 0-102 0-102 0c0 0 0-281 0-281c0-17 7-26 20-26c0 0 57 0 57 0m-154 154c8 0 14 2 18 7c5 6 8 12 8 18c0 0 0 128 0 128c0 0-103 0-103 0c0 0 0-128 0-128c0-17 7-25 21-25c0 0 56 0 56 0"/>
    </symbol>
  
    <symbol id="icon-table" viewBox="0 0 512 512">
      <path d="m165 393l0-55c0-2-1-5-3-6c-2-2-4-3-7-3l-91 0c-3 0-5 1-7 3c-1 1-2 4-2 6l0 55c0 3 1 5 2 7c2 1 4 2 7 2l91 0c3 0 5-1 7-2c2-2 3-4 3-7z m0-110l0-54c0-3-1-5-3-7c-2-2-4-3-7-3l-91 0c-3 0-5 1-7 3c-1 2-2 4-2 7l0 54c0 3 1 5 2 7c2 2 4 3 7 3l91 0c3 0 5-1 7-3c2-2 3-4 3-7z m146 110l0-55c0-2-1-5-3-6c-1-2-4-3-6-3l-92 0c-2 0-5 1-6 3c-2 1-3 4-3 6l0 55c0 3 1 5 3 7c1 1 4 2 6 2l92 0c2 0 5-1 6-2c2-2 3-4 3-7z m-146-219l0-55c0-3-1-5-3-7c-2-1-4-2-7-2l-91 0c-3 0-5 1-7 2c-1 2-2 4-2 7l0 55c0 2 1 5 2 6c2 2 4 3 7 3l91 0c3 0 5-1 7-3c2-1 3-4 3-6z m146 109l0-54c0-3-1-5-3-7c-1-2-4-3-6-3l-92 0c-2 0-5 1-6 3c-2 2-3 4-3 7l0 54c0 3 1 5 3 7c1 2 4 3 6 3l92 0c2 0 5-1 6-3c2-2 3-4 3-7z m146 110l0-55c0-2-1-5-2-6c-2-2-4-3-7-3l-91 0c-3 0-5 1-7 3c-2 1-3 4-3 6l0 55c0 3 1 5 3 7c2 1 4 2 7 2l91 0c3 0 5-1 7-2c1-2 2-4 2-7z m-146-219l0-55c0-3-1-5-3-7c-1-1-4-2-6-2l-92 0c-2 0-5 1-6 2c-2 2-3 4-3 7l0 55c0 2 1 5 3 6c1 2 4 3 6 3l92 0c2 0 5-1 6-3c2-1 3-4 3-6z m146 109l0-54c0-3-1-5-2-7c-2-2-4-3-7-3l-91 0c-3 0-5 1-7 3c-2 2-3 4-3 7l0 54c0 3 1 5 3 7c2 2 4 3 7 3l91 0c3 0 5-1 7-3c1-2 2-4 2-7z m0-109l0-55c0-3-1-5-2-7c-2-1-4-2-7-2l-91 0c-3 0-5 1-7 2c-2 2-3 4-3 7l0 55c0 2 1 5 3 6c2 2 4 3 7 3l91 0c3 0 5-1 7-3c1-1 2-4 2-6z m37-92l0 311c0 13-5 23-14 32c-9 9-19 14-32 14l-384 0c-13 0-23-5-32-14c-9-9-14-19-14-32l0-311c0-12 5-23 14-32c9-9 19-13 32-13l384 0c13 0 23 4 32 13c9 9 14 20 14 32z"/>
    </symbol>
  
    <symbol id="icon-angle-down" viewBox="0 0 512 512">
      <path d="m399 210c0 3-1 5-3 7l-133 133c-2 2-5 3-7 3c-2 0-5-1-7-3l-133-133c-2-2-3-4-3-7c0-2 1-4 3-6l15-15c1-1 4-2 6-2c3 0 5 1 7 2l112 113l112-113c2-1 4-2 7-2c2 0 5 1 6 2l15 15c2 2 3 4 3 6z"/>
    </symbol>
  
    <symbol id="icon-angle-left" viewBox="0 0 512 512">
      <path d="m344 155c0 3-1 5-3 7l-112 112l112 113c2 1 3 4 3 6c0 3-1 5-3 7l-14 14c-2 2-5 3-7 3c-2 0-5-1-7-3l-133-133c-2-2-3-4-3-7c0-2 1-4 3-6l133-133c2-2 5-3 7-3c2 0 5 1 7 3l14 14c2 2 3 4 3 6z"/>
    </symbol>
  
    <symbol id="icon-angle-right" viewBox="0 0 512 512">
      <path d="m335 274c0 3-1 5-3 7l-133 133c-2 2-5 3-7 3c-2 0-5-1-7-3l-14-14c-2-2-3-4-3-7c0-2 1-5 3-6l112-113l-112-112c-2-2-3-4-3-7c0-2 1-4 3-6l14-14c2-2 5-3 7-3c2 0 5 1 7 3l133 133c2 2 3 4 3 6z"/>
    </symbol>
  
    <symbol id="icon-angle-up" viewBox="0 0 512 512">
      <path d="m399 338c0 3-1 5-3 7l-15 14c-1 2-4 3-6 3c-3 0-5-1-7-3l-112-112l-112 112c-2 2-4 3-7 3c-2 0-5-1-6-3l-15-14c-2-2-3-4-3-7c0-2 1-4 3-6l133-133c2-2 5-3 7-3c2 0 5 1 7 3l133 133c2 2 3 4 3 6z"/>
    </symbol>
  
    <symbol id="icon-facebook" viewBox="0 0 512 512">
      <path d="m292 159l74 0l-9 81l-65 0l0 235l-97 0l0-235l-49 0l0-81l49 0l0-49c0-35 8-61 24-79c17-18 44-26 81-26l65 0l0 81l-40 0c-8 0-14 0-18 2c-5 1-8 3-10 6c-2 4-3 7-4 10c0 3-1 8-1 14z"/>
    </symbol>
  
    <symbol id="icon-twitter" viewBox="0 0 512 512">
      <path d="m481 117c-13 18-28 34-46 47c0 3 0 7 0 12c0 25-3 50-11 74c-7 25-18 49-33 71c-14 23-32 43-52 61c-21 17-45 31-74 41c-29 11-60 16-92 16c-52 0-99-14-142-42c7 1 14 2 22 2c43 0 81-14 115-40c-20 0-38-6-54-18c-16-12-27-27-33-46c7 1 13 2 18 2c8 0 16-1 24-4c-21-4-39-15-53-31c-14-17-21-37-21-59l0-1c13 7 27 11 42 11c-13-8-23-19-30-32c-8-14-11-29-11-44c0-17 4-33 12-47c23 28 51 51 84 68c33 17 69 27 107 29c-2-8-3-15-3-22c0-25 9-47 27-65c18-18 40-27 66-27c26 0 49 10 67 29c21-4 40-11 59-22c-7 22-21 39-41 51c18-2 35-7 53-14z"/>
    </symbol>
  
    <symbol id="icon-linkedin" viewBox="0 0 512 512">
      <path d="m136 179l0 283l-94 0l0-283z m6-88c0 14-4 26-14 35c-10 9-23 14-39 14l0 0c-16 0-29-5-38-14c-10-9-14-21-14-35c0-14 4-26 14-35c10-9 23-14 39-14c16 0 28 5 38 14c9 9 14 21 14 35z m333 208l0 163l-94 0l0-152c0-20-3-35-11-47c-8-11-20-17-36-17c-12 0-22 4-30 10c-9 7-15 15-19 25c-2 5-3 13-3 23l0 158l-94 0c1-76 1-138 1-185c0-47 0-76 0-85l-1-13l94 0l0 41l0 0c4-6 7-12 11-16c4-5 10-10 17-15c6-5 15-10 24-13c10-3 21-4 33-4c33 0 59 11 79 32c20 22 29 54 29 95z"/>
    </symbol>
  
    <symbol id="icon-triangle-down" viewBox="0 0 512 512">
      <path d="m64 192l192 192 192-192z"/>
    </symbol>
  
    <symbol id="icon-primitive-dot" viewBox="0 0 512 512">
      <path d="m128 256c0-71 57-128 128-128 71 0 128 57 128 128 0 71-57 128-128 128-71 0-128-57-128-128z"/>
    </symbol>
  
</svg>
