<?xml version="1.0" encoding="UTF-8" standalone="no"?>
<svg
   xmlns:dc="http://purl.org/dc/elements/1.1/"
   xmlns:cc="http://creativecommons.org/ns#"
   xmlns:rdf="http://www.w3.org/1999/02/22-rdf-syntax-ns#"
   xmlns:svg="http://www.w3.org/2000/svg"
   xmlns="http://www.w3.org/2000/svg"
   xmlns:sodipodi="http://sodipodi.sourceforge.net/DTD/sodipodi-0.dtd"
   xmlns:inkscape="http://www.inkscape.org/namespaces/inkscape"
   version="1.1"
   id="Layer_1"
   x="0px"
   y="0px"
   width="100px"
   height="100px"
   viewBox="0 0 100 100"
   enable-background="new 0 0 100 100"
   xml:space="preserve"
   inkscape:version="0.48.4 r9943 custom"
   sodipodi:docname="menu-hover.svg"><metadata
   id="metadata2998"><rdf:RDF><cc:Work
       rdf:about=""><dc:format>image/svg+xml</dc:format><dc:type
         rdf:resource="http://purl.org/dc/dcmitype/StillImage" /></cc:Work></rdf:RDF></metadata><defs
   id="defs2996" /><sodipodi:namedview
   pagecolor="#ffffff"
   bordercolor="#666666"
   borderopacity="1"
   objecttolerance="10"
   gridtolerance="10"
   guidetolerance="10"
   inkscape:pageopacity="0"
   inkscape:pageshadow="2"
   inkscape:window-width="842"
   inkscape:window-height="871"
   id="namedview2994"
   showgrid="false"
   inkscape:zoom="2.36"
   inkscape:cx="38.078553"
   inkscape:cy="46.610169"
   inkscape:window-x="0"
   inkscape:window-y="22"
   inkscape:window-maximized="0"
   inkscape:current-layer="Layer_1" />
<g
   id="g3798"
   style="fill:#7e72c9;fill-opacity:1"><g
     id="g2986"
     style="fill:#7e72c9;fill-opacity:1">
	<path
   id="path2988"
   d="M8.016,4.016h84.453c1.665,0,3.016,1.351,3.016,3.016v18.097   c0,1.666-1.351,3.016-3.016,3.016H8.016C6.349,28.146,5,26.795,5,25.129V7.032C5,5.367,6.349,4.016,8.016,4.016z"
   clip-rule="evenodd"
   fill-rule="evenodd"
   fill="#f4594e"
   style="fill:#7e72c9;fill-opacity:1" />
	<path
   id="path2990"
   d="M8.016,37.194h84.453c1.665,0,3.016,1.349,3.016,3.016v18.097   c0,1.667-1.351,3.016-3.016,3.016H8.016C6.349,61.322,5,59.974,5,58.307V40.21C5,38.543,6.349,37.194,8.016,37.194z"
   clip-rule="evenodd"
   fill-rule="evenodd"
   fill="#f4594e"
   style="fill:#7e72c9;fill-opacity:1" />
	<path
   id="path2992"
   d="M8.016,70.371h84.453c1.665,0,3.016,1.349,3.016,3.016v18.098   c0,1.667-1.351,3.016-3.016,3.016H8.016C6.349,94.5,5,93.151,5,91.484V73.387C5,71.72,6.349,70.371,8.016,70.371z"
   clip-rule="evenodd"
   fill-rule="evenodd"
   fill="#f4594e"
   style="fill:#7e72c9;fill-opacity:1" />
</g></g>
</svg>