<svg version="1.1" id="Layer_1" xmlns="http://www.w3.org/2000/svg" xmlns:xlink="http://www.w3.org/1999/xlink" x="0px" y="0px"
	 viewBox="0 0 32 32" enable-background="new 0 0 32 32" xml:space="preserve">
<path fill="#5A5A68" d="M27,19v5H5v-5H2v6.1C2,25.9,3,27,3.8,27h24.7c0.8,0,1.5-1.1,1.5-1.9V19H27z M15.8,18.8l-4.1-5.1
	c0,0-0.6-0.7,0.1-0.7c0.7,0,2.3,0,2.3,0s0-0.1,0-0.7c0-1.7,0-8.3,0-9.3h4c0,1,0,7.6,0,9.2c0,0.5,0,0.8,0,0.8s1.4,0,2.2,0
	c0.8,0,0.2,0.7,0.2,0.7s-3.5,4.6-4,5.1C16.1,19.2,15.8,18.8,15.8,18.8z"/>
</svg>